#N canvas 48 94 1352 789 10;
#X declare -path ./pd-acid-core/;
#X declare -path ./pd-midi-guis/;
#X declare -path .;
#X declare -path ./common/;
#X declare -path ./blockhead/;
#X declare -path ./rjlib/rj;
#X declare -path ./pd-acid-core/blockhead/;
#X declare -path ./pd-acid-core/rjlib/rj/;
#X declare -path ./pd-acid-core/sssad/;
#X declare -path ./pd-acid-core/common/;
#X declare -path ./blockhead/;
#X obj 1098 17 declare -path ./pd-acid-core/;
#X obj 1098 39 declare -path ./pd-midi-guis/;
#X obj 24 104 s acid/tick;
#X obj 16 660 catch~ acid/out;
#X obj 16 750 dac~;
#X obj 16 614 acid-core acid;
#X obj 1098 61 declare -path ./pd-acid-core/blockhead/;
#X obj 1098 83 declare -path ./pd-acid-core/rjlib/rj/;
#X obj 1098 105 declare -path ./pd-acid-core/sssad/;
#X obj 1098 127 declare -path ./pd-acid-core/common/;
#X obj 1098 149 declare -path ./blockhead/;
#X msg 207 487 \; acid/swing 0 \;;
#X msg 17 491 \; acid/pickslide bang \; acid/pickoctave bang \; acid/pickaccent
bang \; acid/picksequence bang \; acid/picknotes bang \; acid/pickrootnote
bang \; acid/pickwave bang \;;
#X obj 207 465 loadbang;
#X floatatom 16 635 5 0 0 0 - - -, f 5;
#X text 221 222 acid/cutoff;
#X text 221 252 acid/rez;
#X text 221 282 acid/decay;
#X obj 22 218 g_midi_slider acid/cutoff;
#X obj 22 248 g_midi_slider acid/rez;
#X obj 22 278 g_midi_slider acid/decay;
#X obj 22 309 g_midi_radio \$0/globaloctave 6;
#X obj 144 616 r \$0/globaloctave;
#X obj 144 638 - 2;
#X obj 144 660 s acid/globaloctave;
#N canvas 212 320 450 300 clock 0;
#X obj 15 10 u_midi_spp;
#X floatatom 15 140 5 0 0 0 - - -, f 5;
#X msg 185 146 multiple 2;
#X msg 185 173 multiple 4;
#X msg 185 122 multiple 1;
#X text 89 10 <- master clock from GBA MIDI;
#X obj 59 56 timer;
#X obj 15 32 t f b b;
#X obj 59 78 expr 60000 / $f1;
#X msg 59 123 bpm \$1;
#X obj 29 230 outlet;
#X obj 196 49 r \$0/freqdiv;
#X msg 196 90 multiple \$1;
#X obj 196 70 + 1;
#X obj 29 208 u_tick-multiplier;
#X obj 59 100 clip 30 300;
#X obj 197 229 outlet;
#X obj 335 47 loadbang;
#X msg 335 69 1;
#X connect 0 0 7 0;
#X connect 1 0 14 0;
#X connect 2 0 14 0;
#X connect 3 0 14 0;
#X connect 4 0 14 0;
#X connect 6 0 8 0;
#X connect 7 0 1 0;
#X connect 7 1 6 0;
#X connect 7 2 6 1;
#X connect 8 0 15 0;
#X connect 9 0 14 0;
#X connect 11 0 13 0;
#X connect 12 0 14 0;
#X connect 13 0 12 0;
#X connect 14 0 10 0;
#X connect 15 0 9 0;
#X connect 15 0 16 0;
#X connect 17 0 18 0;
#X connect 18 0 14 0;
#X restore 24 22 pd clock;
#X text 222 312 octave;
#X text 175 26 tick divider;
#X text 148 379 acid/fresh;
#X obj 17 464 r acid/fresh;
#X obj 55 374 g_midi_button acid/fresh;
#X floatatom 41 74 8 0 0 0 - - -, f 8;
#X obj 173 47 g_midi_radio \$0/freqdiv 4;
#X obj 943 16 g_midi_settings;
#X obj 979 690 dac~;
#X obj 707 43 s~ from-desk;
#X obj 572 660 r~ from-desk;
#X obj 1004 633 r~ from-desk;
#N canvas 80 83 978 372 reverb 0;
#X obj 11 11 inlet~;
#X obj 11 342 outlet~;
#X msg 426 18 roomsize \$1;
#X msg 426 40 damping \$1;
#X msg 426 62 width \$1;
#X msg 426 84 wet \$1;
#X msg 426 106 dry \$1;
#X msg 426 128 print;
#X msg 426 150 freeze \$1;
#X msg 426 172 bypass \$1;
#X text 489 127 - print the current values of the above parameters
;
#X text 502 150 - start/stop freeze of reverb tail \, using 1 or 0
;
#X text 506 171 - bypass the reverb processing \, using a 1 or 0;
#X text 487 105 - level of unprocessed signal \, between 0 and 1 (default:
0);
#X text 491 84 - level of reverbed signal \, between 0 and 1 (default:
0.3);
#X text 513 39 - amount of damping of room's surfaces (default: 0.5)
;
#X text 495 63 - stereo width of reverb (default: 1);
#X text 517 17 - size of the room to be simulated (default=0.85);
#X obj 12 319 freeverb~;
#X obj 35 75 r freeverb/roomsize;
#X obj 35 97 t f f;
#X msg 138 157 freeze \$1;
#X msg 35 158 roomsize \$1;
#X obj 138 135 > 120;
#X obj 35 136 / 120;
#X obj 252 68 r freeverb/level;
#X obj 252 90 t f f;
#X obj 284 111 > 0;
#X obj 284 133 switch~;
#X msg 315 111 0;
#X obj 252 162 t f f;
#X obj 315 89 loadbang;
#X obj 197 185 / 127;
#X obj 197 207 * 0.25;
#X msg 197 233 wet \$1;
#X msg 284 255 dry \$1;
#X connect 0 0 18 0;
#X connect 18 0 1 0;
#X connect 19 0 20 0;
#X connect 20 0 24 0;
#X connect 20 1 23 0;
#X connect 21 0 18 0;
#X connect 22 0 18 0;
#X connect 23 0 21 0;
#X connect 24 0 22 0;
#X connect 25 0 26 0;
#X connect 26 0 30 0;
#X connect 26 1 27 0;
#X connect 27 0 28 0;
#X connect 29 0 28 0;
#X connect 29 0 35 0;
#X connect 30 0 32 0;
#X connect 31 0 29 0;
#X connect 32 0 33 0;
#X connect 33 0 34 0;
#X connect 34 0 18 0;
#X connect 35 0 18 0;
#X restore 1004 665 pd reverb;
#X obj 1012 504 g_midi_slider freeverb/roomsize;
#N canvas 2 50 450 300 init 0;
#X obj 11 10 loadbang;
#X obj 11 32 t b b;
#X obj 11 124 delay 2000;
#X obj 96 9 inlet;
#X msg 11 146 \; pd dsp 1 \;;
#X obj 11 101 spigot 1;
#X connect 0 0 1 0;
#X connect 1 0 5 0;
#X connect 2 0 4 0;
#X connect 3 0 5 1;
#X connect 5 0 2 0;
#X restore 490 44 pd init;
#X obj 490 23 tgl 15 1 empty empty prevent_dsp 17 7 0 10 -262144 -1
-1 1 1;
#X obj 707 20 adc~ 1;
#X text 1214 507 freeverb/roomsize;
#X obj 1012 538 g_midi_slider freeverb/level;
#X text 1214 541 freeverb/level;
#X obj 36 685 r acid/volume;
#X obj 22 339 g_midi_slider acid/volume;
#X text 227 345 avid/volume;
#X obj 546 685 dac~;
#N canvas 2 50 450 300 banga 0;
#X obj 91 107 bonk~;
#X obj 91 153 line~;
#X obj 59 182 *~;
#X obj 91 83 *~ 0.1;
#X msg 91 128 1 \, 0 50;
#X obj 60 17 inlet~;
#X obj 59 204 outlet~;
#X obj 235 57 switch~;
#X connect 0 0 4 0;
#X connect 1 0 2 1;
#X connect 2 0 6 0;
#X connect 3 0 0 0;
#X connect 4 0 1 0;
#X connect 5 0 3 0;
#X connect 5 0 2 0;
#X restore 568 456 pd banga;
#X obj 79 727 *~;
#X obj 99 706 / 32;
#X floatatom 107 74 5 0 0 0 - - -, f 5;
#X obj 24 44 f;
#X obj 16 722 *~ 3;
#X connect 3 0 55 0;
#X connect 5 0 14 0;
#X connect 13 0 11 0;
#X connect 22 0 23 0;
#X connect 23 0 24 0;
#X connect 25 0 54 0;
#X connect 25 1 53 0;
#X connect 29 0 12 0;
#X connect 36 0 49 1;
#X connect 37 0 38 0;
#X connect 38 0 34 1;
#X connect 41 0 40 0;
#X connect 42 0 35 0;
#X connect 46 0 52 0;
#X connect 52 0 51 1;
#X connect 54 0 2 0;
#X connect 54 0 31 0;
#X connect 55 0 4 0;
