#N canvas 2 55 1351 681 10;
#X declare -path ./pd-acid-core/;
#X declare -path ./pd-midi-guis/;
#X declare -path .;
#X declare -path ./common/;
#X declare -path ./blockhead/;
#X declare -path ./rjlib/rj;
#X declare -path ./pd-acid-core/blockhead/;
#X declare -path ./pd-acid-core/rjlib/rj/;
#X declare -path ./pd-acid-core/sssad/;
#X declare -path ./pd-acid-core/common/;
#X declare -path ./blockhead/;
#X declare -path ./rc-patches/rc/;
#X declare -path ./rjlib/rj/;
#X declare -path ./blockhead/;
#X obj 1098 17 declare -path ./pd-acid-core/;
#X obj 1098 39 declare -path ./pd-midi-guis/;
#X obj 16 490 catch~ acid/out;
#X obj 16 660 dac~;
#X obj 16 444 acid-core acid;
#X obj 1098 61 declare -path ./pd-acid-core/blockhead/;
#X obj 1098 83 declare -path ./pd-acid-core/rjlib/rj/;
#X obj 1098 105 declare -path ./pd-acid-core/sssad/;
#X obj 1098 127 declare -path ./pd-acid-core/common/;
#X obj 1098 149 declare -path ./blockhead/;
#X msg 207 317 \; acid/swing 0 \;;
#X msg 17 321 \; acid/pickslide bang \; acid/pickoctave bang \; acid/pickaccent
bang \; acid/picksequence bang \; acid/picknotes bang \; acid/pickrootnote
bang \; acid/pickwave bang \;;
#X obj 207 295 loadbang;
#X floatatom 16 465 5 0 0 0 - - -, f 5;
#X text 221 102 acid/cutoff;
#X text 221 132 acid/rez;
#X text 221 162 acid/decay;
#X obj 22 98 g_midi_slider acid/cutoff;
#X obj 22 128 g_midi_slider acid/rez;
#X obj 22 158 g_midi_slider acid/decay;
#X obj 22 189 g_midi_radio \$0/globaloctave 6;
#X obj 144 446 r \$0/globaloctave;
#X obj 144 468 - 2;
#X obj 144 490 s acid/globaloctave;
#X text 222 192 octave;
#X text 175 26 tick divider;
#X text 148 259 acid/fresh;
#X obj 17 294 r acid/fresh;
#X obj 55 254 g_midi_button acid/fresh;
#X obj 173 47 g_midi_radio \$0/freqdiv 4;
#X obj 943 16 g_midi_settings;
#N canvas 2 50 450 300 init 0;
#X obj 11 10 loadbang;
#X obj 11 32 t b b;
#X obj 11 124 delay 2000;
#X obj 96 9 inlet;
#X msg 11 146 \; pd dsp 1 \;;
#X obj 11 101 spigot 1;
#X connect 0 0 1 0;
#X connect 1 0 5 0;
#X connect 2 0 4 0;
#X connect 3 0 5 1;
#X connect 5 0 2 0;
#X restore 490 44 pd init;
#X obj 490 23 tgl 15 1 empty empty prevent_dsp 17 7 0 10 -262144 -1
-1 1 1;
#X obj 741 656 dac~;
#X obj 16 619 *~ 3;
#X floatatom 25 39 5 0 0 0 - - -, f 5;
#N canvas 480 165 450 300 dist 0;
#X obj 31 83 inlet~;
#X obj 31 257 outlet~;
#X text 27 52 rebirth style "foldover" distortion. sounds right?;
#X obj 30 233 expr~ sin($v2 * $v1);
#X obj 183 85 inlet;
#X obj 31 213 *~ 0;
#X obj 68 213 *~ 1;
#X obj 183 107 moses 1;
#X obj 230 130 t b f;
#X msg 217 151 0;
#X msg 250 151 1;
#X msg 148 130 0;
#X msg 187 128 1;
#X connect 0 0 5 0;
#X connect 0 0 6 0;
#X connect 3 0 1 0;
#X connect 4 0 7 0;
#X connect 5 0 3 0;
#X connect 6 0 1 0;
#X connect 7 0 11 0;
#X connect 7 0 12 0;
#X connect 7 1 8 0;
#X connect 8 0 9 0;
#X connect 8 0 10 0;
#X connect 8 1 3 1;
#X connect 9 0 6 1;
#X connect 10 0 5 1;
#X connect 11 0 5 1;
#X connect 12 0 6 1;
#X restore 16 598 pd dist;
#X obj 62 511 r acid/distortion;
#X text 227 225 acid/distortion;
#X obj 22 218 g_midi_slider acid/distortion;
#X obj 62 533 / 127;
#X obj 771 482 808-thing/_main;
#X obj 722 434 g_midi_button 808/fresh;
#X text 805 438 808/fresh;
#X obj 653 520 catch~ 808/bd;
#X obj 782 515 catch~ 808/sd;
#X obj 984 524 catch~ 808/hh;
#X obj 62 555 * 20;
#X obj 62 577 int;
#X obj 25 17 gba-timer \$0;
#X obj 695 22 r 808/pretick;
#X obj 695 223 blockhead/u_tick-multiplier;
#X obj 801 122 r BPM;
#X msg 801 164 bpm \$1;
#X obj 695 245 s 808/tick;
#X msg 864 191 multiple \$1;
#X obj 864 171 + 1;
#X obj 840 49 r \$0/drumfreq;
#X text 882 275 \$0/drumfreq;
#X obj 680 272 g_midi_radio \$0/drumfreq 8;
#X obj 910 150 pow 2;
#X obj 653 592 *~ 1;
#X obj 678 547 r 808/bd/vol;
#X obj 678 569 / 127;
#X obj 781 596 *~ 1;
#X obj 806 573 / 127;
#X obj 806 551 r 808/sd/vol;
#X obj 987 603 *~ 1;
#X obj 1012 580 / 127;
#X obj 1012 558 r 808/hh/vol;
#X obj 696 323 g_midi_slider 808/bd/vol;
#X text 905 328 808/bd/vol;
#X obj 697 361 g_midi_slider 808/sd/vol;
#X text 910 362 808/sd/vol;
#X obj 697 394 g_midi_slider 808/hh/vol;
#X text 912 397 808/hh/vol;
#X floatatom 974 181 5 0 0 0 - - -, f 5;
#X obj 864 130 moses 4;
#X obj 440 105 osc-send;
#X obj 350 180 g_midi_slider acid/finetune;
#X text 424 213 acid/finetune;
#X obj 864 110 change;
#X obj 838 83 f;
#X obj 695 44 t f b;
#X floatatom 761 108 5 0 0 0 - - -, f 5;
#X floatatom 661 95 5 0 0 0 - - -, f 5;
#X obj 356 260 g_midi_slider acid/volume;
#X obj 16 641 *~;
#X obj 103 591 r acid/volume;
#X obj 103 613 / 127;
#X text 411 305 acid/volume;
#X obj 801 144 change;
#X obj 987 625 *~ 3;
#X connect 2 0 36 0;
#X connect 4 0 13 0;
#X connect 12 0 10 0;
#X connect 21 0 22 0;
#X connect 22 0 23 0;
#X connect 27 0 11 0;
#X connect 32 0 31 0;
#X connect 34 0 87 0;
#X connect 36 0 34 0;
#X connect 37 0 40 0;
#X connect 40 0 47 0;
#X connect 44 0 61 0;
#X connect 45 0 64 0;
#X connect 46 0 67 0;
#X connect 47 0 48 0;
#X connect 48 0 36 1;
#X connect 49 0 35 0;
#X connect 50 0 83 0;
#X connect 50 0 85 0;
#X connect 51 0 54 0;
#X connect 52 0 91 0;
#X connect 53 0 51 0;
#X connect 55 0 51 0;
#X connect 56 0 55 0;
#X connect 57 0 82 1;
#X connect 60 0 55 0;
#X connect 60 0 76 0;
#X connect 61 0 33 1;
#X connect 62 0 63 0;
#X connect 63 0 61 1;
#X connect 64 0 33 1;
#X connect 65 0 64 1;
#X connect 66 0 65 0;
#X connect 67 0 92 0;
#X connect 68 0 67 1;
#X connect 69 0 68 0;
#X connect 77 0 56 0;
#X connect 77 1 60 0;
#X connect 81 0 77 0;
#X connect 82 0 81 0;
#X connect 82 0 84 0;
#X connect 83 0 51 0;
#X connect 83 1 82 0;
#X connect 87 0 3 0;
#X connect 88 0 89 0;
#X connect 89 0 87 1;
#X connect 91 0 53 0;
#X connect 92 0 33 1;
