#N canvas 117 178 1352 789 10;
#X declare -path ./pd-acid-core/;
#X declare -path ./pd-midi-guis/;
#X declare -path .;
#X declare -path ./common/;
#X declare -path ./blockhead/;
#X declare -path ./rjlib/rj;
#X declare -path ./pd-acid-core/blockhead/;
#X declare -path ./pd-acid-core/rjlib/rj/;
#X declare -path ./pd-acid-core/sssad/;
#X declare -path ./pd-acid-core/common/;
#X declare -path ./blockhead/;
#X obj 1098 17 declare -path ./pd-acid-core/;
#X obj 1098 39 declare -path ./pd-midi-guis/;
#X obj 24 104 s acid/tick;
#X obj 16 700 catch~ acid/out;
#X obj 16 730 dac~;
#X obj 16 654 acid-core acid;
#X obj 1098 61 declare -path ./pd-acid-core/blockhead/;
#X obj 1098 83 declare -path ./pd-acid-core/rjlib/rj/;
#X obj 1098 105 declare -path ./pd-acid-core/sssad/;
#X obj 1098 127 declare -path ./pd-acid-core/common/;
#X obj 1098 149 declare -path ./blockhead/;
#X msg 207 527 \; acid/swing 0 \;;
#X msg 17 531 \; acid/pickslide bang \; acid/pickoctave bang \; acid/pickaccent
bang \; acid/picksequence bang \; acid/picknotes bang \; acid/pickrootnote
bang \; acid/pickwave bang \;;
#X obj 207 505 loadbang;
#X floatatom 16 675 5 0 0 0 - - -, f 5;
#X text 221 222 acid/cutoff;
#X text 221 252 acid/rez;
#X text 221 282 acid/decay;
#X obj 22 218 g_midi_slider acid/cutoff;
#X obj 22 248 g_midi_slider acid/rez;
#X obj 22 278 g_midi_slider acid/decay;
#X obj 22 309 g_midi_radio \$0/globaloctave 6;
#X obj 144 656 r \$0/globaloctave;
#X obj 144 678 - 2;
#X obj 144 700 s acid/globaloctave;
#N canvas 217 350 450 300 clock 0;
#X obj 15 10 u_midi_spp;
#X floatatom 15 140 5 0 0 0 - - -, f 5;
#X msg 185 146 multiple 2;
#X msg 185 173 multiple 4;
#X msg 185 122 multiple 1;
#X text 89 10 <- master clock from GBA MIDI;
#X obj 59 56 timer;
#X obj 15 32 t f b b;
#X obj 59 78 expr 60000 / $f1;
#X msg 59 123 bpm \$1;
#X obj 29 230 outlet;
#X obj 196 49 r \$0/freqdiv;
#X msg 196 90 multiple \$1;
#X obj 196 70 + 1;
#X obj 29 208 u_tick-multiplier;
#X obj 59 100 clip 30 300;
#X obj 197 229 print;
#X connect 0 0 7 0;
#X connect 1 0 14 0;
#X connect 2 0 14 0;
#X connect 3 0 14 0;
#X connect 4 0 14 0;
#X connect 6 0 8 0;
#X connect 7 0 1 0;
#X connect 7 1 6 0;
#X connect 7 2 6 1;
#X connect 8 0 15 0;
#X connect 9 0 14 0;
#X connect 9 0 16 0;
#X connect 11 0 13 0;
#X connect 12 0 14 0;
#X connect 13 0 12 0;
#X connect 14 0 10 0;
#X connect 15 0 9 0;
#X restore 24 22 pd clock;
#X obj 24 44 t f f f;
#X text 222 312 octave;
#X text 175 26 tick divider;
#X text 148 379 acid/fresh;
#X obj 17 504 r acid/fresh;
#X obj 55 374 g_midi_button acid/fresh;
#X obj 547 30 adc~ 1 2 3 4 5 6 7 8;
#X floatatom 41 74 8 0 0 0 - - -, f 8;
#X obj 173 47 g_midi_radio \$0/freqdiv 4;
#X obj 943 16 g_midi_settings;
#X connect 3 0 4 0;
#X connect 3 0 4 1;
#X connect 5 0 14 0;
#X connect 13 0 11 0;
#X connect 22 0 23 0;
#X connect 23 0 24 0;
#X connect 25 0 26 0;
#X connect 26 0 2 0;
#X connect 26 0 33 0;
#X connect 30 0 12 0;
