#N canvas 455 189 450 444 10;
#X obj 87 112 pd-midi-guis/u_midi_spp;
#X obj 87 314 blockhead/u_tick-multiplier;
#X msg 20 133 1;
#X obj 87 408 s 808/tick;
#X obj 20 111 loadbang;
#X obj 106 387 s acid/tick;
#X text 175 26 tick divider;
#X floatatom 87 243 5 0 0 0 - - -, f 5;
#X obj 131 179 timer;
#X obj 87 135 t f b b;
#X obj 131 201 expr 60000 / $f1;
#X msg 131 224 bpm \$1;
#X obj 207 232 r \$0/freqdiv;
#X msg 207 274 multiple \$1;
#X msg 344 224 multiple 2;
#X msg 344 251 multiple 4;
#X msg 344 200 multiple 1;
#X obj 173 47 pd-midi-guis/g_midi_radio \$0/freqdiv 4;
#X obj 207 254 + 1;
#X msg 106 283 bpm 180;
#X obj 87 336 t f f f;
#X obj 126 366 s loopcatch/tick;
#X connect 0 0 9 0;
#X connect 1 0 20 0;
#X connect 2 0 1 0;
#X connect 4 0 2 0;
#X connect 7 0 1 0;
#X connect 8 0 10 0;
#X connect 9 0 7 0;
#X connect 9 1 8 0;
#X connect 9 2 8 1;
#X connect 10 0 11 0;
#X connect 11 0 1 0;
#X connect 12 0 18 0;
#X connect 13 0 1 0;
#X connect 14 0 1 0;
#X connect 15 0 1 0;
#X connect 16 0 1 0;
#X connect 18 0 13 0;
#X connect 19 0 1 0;
#X connect 20 0 3 0;
#X connect 20 1 5 0;
#X connect 20 2 21 0;
