#N canvas 449 153 450 444 10;
#X obj 87 32 pd-midi-guis/u_midi_spp;
#X obj 87 234 blockhead/u_tick-multiplier;
#X msg 20 53 1;
#X obj 20 31 loadbang;
#X obj 106 387 s acid/tick;
#X floatatom 87 163 5 0 0 0 - - -, f 5;
#X obj 131 99 timer;
#X obj 87 55 t f b b;
#X obj 131 121 expr 60000 / $f1;
#X msg 131 144 bpm \$1;
#X msg 312 81 multiple \$1;
#X msg 344 144 multiple 2;
#X msg 344 171 multiple 4;
#X msg 344 120 multiple 1;
#X obj 312 61 + 1;
#X msg 106 203 bpm 180;
#X obj 126 366 s loopcatch/tick;
#X obj 147 281 outlet;
#X obj 87 258 t f f f f;
#X obj 312 9 r \$1/freqdiv;
#X obj 312 31 change;
#X obj 87 408 s 808/pretick;
#X connect 0 0 7 0;
#X connect 1 0 18 0;
#X connect 2 0 1 0;
#X connect 3 0 2 0;
#X connect 5 0 1 0;
#X connect 6 0 8 0;
#X connect 7 0 5 0;
#X connect 7 1 6 0;
#X connect 7 2 6 1;
#X connect 8 0 9 0;
#X connect 9 0 1 0;
#X connect 10 0 1 0;
#X connect 11 0 1 0;
#X connect 12 0 1 0;
#X connect 13 0 1 0;
#X connect 14 0 10 0;
#X connect 15 0 1 0;
#X connect 18 0 21 0;
#X connect 18 1 4 0;
#X connect 18 2 16 0;
#X connect 18 3 17 0;
#X connect 19 0 20 0;
#X connect 20 0 14 0;
