#N canvas 2 47 630 300 10;
#X obj 76 104 list prepend send;
#X obj 76 126 list trim;
#X floatatom 76 30 5 0 0 0 - - -, f 5;
#X msg 198 14 180;
#X msg 234 14 140;
#X msg 367 25 0 5 7 9;
#X obj 86 150 loadbang;
#X obj 298 7 r BPM;
#X obj 17 6 r tick;
#X msg 86 197 disconnect \, connect 255.255.255.255 4444;
#X obj 86 173 metro 20000;
#X msg 149 150 bang;
#X obj 367 54 list prepend /goodnotes;
#X obj 226 54 list prepend /bpm;
#X obj 76 224 netsend -u;
#X obj 76 52 list prepend /tick;
#X connect 0 0 1 0;
#X connect 1 0 14 0;
#X connect 2 0 15 0;
#X connect 3 0 13 0;
#X connect 4 0 13 0;
#X connect 5 0 12 0;
#X connect 6 0 10 0;
#X connect 7 0 13 0;
#X connect 8 0 15 0;
#X connect 9 0 14 0;
#X connect 10 0 9 0;
#X connect 11 0 10 0;
#X connect 12 0 0 0;
#X connect 13 0 0 0;
#X connect 15 0 0 0;
