#N canvas 613 270 674 300 10;
#X obj 76 52 oscformat tick;
#X obj 76 224 netsend -u -b;
#X obj 76 104 list prepend send;
#X obj 76 126 list trim;
#X floatatom 76 30 5 0 0 0 - - -, f 5;
#X obj 206 54 oscformat bpm;
#X msg 178 14 180;
#X msg 214 14 140;
#X obj 327 54 oscformat goodnotes;
#X obj 470 155 oscformat;
#X obj 470 36 list split 1;
#X obj 470 14 netreceive -u 12345;
#X obj 470 108 list prepend set;
#X obj 470 130 list trim;
#X obj 486 81 list;
#X obj 470 58 t b a;
#X msg 327 25 0 5 7 9;
#X obj 86 167 loadbang;
#X obj 278 7 r BPM;
#X obj 17 6 r tick;
#X msg 86 197 disconnect \, connect 255.255.255.255 8088;
#X connect 0 0 2 0;
#X connect 2 0 3 0;
#X connect 3 0 1 0;
#X connect 4 0 0 0;
#X connect 5 0 2 0;
#X connect 6 0 5 0;
#X connect 7 0 5 0;
#X connect 8 0 2 0;
#X connect 9 0 2 0;
#X connect 10 0 15 0;
#X connect 10 1 14 1;
#X connect 11 0 10 0;
#X connect 12 0 13 0;
#X connect 13 0 9 0;
#X connect 14 0 9 0;
#X connect 15 0 14 0;
#X connect 15 1 12 0;
#X connect 16 0 8 0;
#X connect 17 0 20 0;
#X connect 18 0 5 0;
#X connect 19 0 0 0;
#X connect 20 0 1 0;
